<?xml version="1.0" encoding="UTF-8" standalone="no"?>
<!DOCTYPE svg PUBLIC "-//W3C//DTD SVG 1.1//EN" "http://www.w3.org/Graphics/SVG/1.1/DTD/svg11.dtd">
<svg width="100%" height="100%" viewBox="0 0 65 64" version="1.1" xmlns="http://www.w3.org/2000/svg" xmlns:xlink="http://www.w3.org/1999/xlink" xml:space="preserve" xmlns:serif="http://www.serif.com/" style="fill-rule:evenodd;clip-rule:evenodd;stroke-linejoin:round;stroke-miterlimit:2;">
    <g transform="matrix(1,0,0,1,-137,0)">
        <g id="Filter" transform="matrix(0.08,0,0,0.106667,137.585,0)">
            <rect x="0" y="0" width="800" height="600" style="fill:none;"/>
            <clipPath id="_clip1">
                <rect x="0" y="0" width="800" height="600"/>
            </clipPath>
            <g clip-path="url(#_clip1)">
                <g transform="matrix(12.5,0,0,9.375,4.54747e-13,6.39488e-14)">
                    <circle cx="32" cy="32" r="32" style="fill:rgb(22,58,108);"/>
                </g>
                <g transform="matrix(12.5,0,0,9.375,-1719.81,0)">
                    <path d="M169.585,-0C187.246,-0 201.585,14.339 201.585,32C201.585,49.661 187.246,64 169.585,64C151.924,64 137.585,49.661 137.585,32C137.585,14.339 151.924,-0 169.585,-0ZM196.439,40.086C197.21,37.525 197.624,34.81 197.624,32C197.624,16.525 185.06,3.961 169.585,3.961C154.11,3.961 141.546,16.525 141.546,32C141.546,34.81 141.96,37.525 142.731,40.086L156.875,40.086C157.288,40.086 157.625,40.422 157.625,40.836L157.625,43.195C157.625,43.609 157.288,43.945 156.875,43.945L144.214,43.945C148.703,53.454 158.381,60.039 169.585,60.039C180.789,60.039 190.467,53.454 194.956,43.945L182.296,43.945C181.882,43.945 181.546,43.609 181.546,43.195L181.546,40.836C181.546,40.422 181.882,40.086 182.296,40.086L196.439,40.086ZM167.038,40.836C167.038,40.422 166.701,40.086 166.288,40.086L164.371,40.086C163.958,40.086 163.621,40.422 163.621,40.836L163.621,43.195C163.621,43.609 163.958,43.945 164.371,43.945L166.288,43.945C166.701,43.945 167.038,43.609 167.038,43.195L167.038,40.836ZM176.177,40.836C176.177,40.422 175.841,40.086 175.427,40.086L173.511,40.086C173.097,40.086 172.761,40.422 172.761,40.836L172.761,43.195C172.761,43.609 173.097,43.945 173.511,43.945L175.427,43.945C175.841,43.945 176.177,43.609 176.177,43.195L176.177,40.836Z" style="fill:rgb(246,206,80);"/>
                </g>
                <g transform="matrix(12.5,0,0,9.375,-1719.81,0)">
                    <path d="M162.017,39.042C162.017,38.628 161.681,38.292 161.267,38.292L159.624,38.292C159.21,38.292 158.874,38.628 158.874,39.042L158.874,48.151C158.874,48.565 159.21,48.901 159.624,48.901L161.267,48.901C161.681,48.901 162.017,48.565 162.017,48.151L162.017,39.042ZM171.156,39.042C171.156,38.628 170.82,38.292 170.406,38.292L168.764,38.292C168.35,38.292 168.014,38.628 168.014,39.042L168.014,48.151C168.014,48.565 168.35,48.901 168.764,48.901L170.406,48.901C170.82,48.901 171.156,48.565 171.156,48.151L171.156,39.042ZM180.296,39.042C180.296,38.628 179.96,38.292 179.546,38.292L177.903,38.292C177.489,38.292 177.153,38.628 177.153,39.042L177.153,48.151C177.153,48.565 177.489,48.901 177.903,48.901L179.546,48.901C179.96,48.901 180.296,48.565 180.296,48.151L180.296,39.042ZM187.841,16.54C187.841,15.161 186.722,14.042 185.343,14.042C185.343,14.042 153.827,14.042 153.827,14.042C152.448,14.042 151.329,15.161 151.329,16.54L151.329,34.097C151.329,35.476 152.448,36.595 153.827,36.595C153.827,36.595 185.343,36.595 185.343,36.595C186.722,36.595 187.841,35.476 187.841,34.097C187.841,34.097 187.841,16.54 187.841,16.54ZM154.825,17.538L154.825,33.099L184.345,33.099L184.345,17.538L154.825,17.538ZM163.266,20.764C163.266,20.35 162.93,20.014 162.516,20.014L158.375,20.014C157.961,20.014 157.625,20.35 157.625,20.764L157.625,29.873C157.625,30.287 157.961,30.623 158.375,30.623L162.516,30.623C162.93,30.623 163.266,30.287 163.266,29.873L163.266,20.764ZM172.406,20.764C172.406,20.35 172.07,20.014 171.656,20.014L167.514,20.014C167.1,20.014 166.764,20.35 166.764,20.764L166.764,29.873C166.764,30.287 167.1,30.623 167.514,30.623L171.656,30.623C172.07,30.623 172.406,30.287 172.406,29.873L172.406,20.764ZM181.546,20.764C181.546,20.35 181.209,20.014 180.796,20.014L176.654,20.014C176.24,20.014 175.904,20.35 175.904,20.764L175.904,29.873C175.904,30.287 176.24,30.623 176.654,30.623L180.796,30.623C181.209,30.623 181.546,30.287 181.546,29.873L181.546,20.764Z" style="fill:white;"/>
                </g>
            </g>
        </g>
    </g>
</svg>
