<?xml version="1.0" encoding="UTF-8" standalone="no"?>
<!DOCTYPE svg PUBLIC "-//W3C//DTD SVG 1.1//EN" "http://www.w3.org/Graphics/SVG/1.1/DTD/svg11.dtd">
<svg width="100%" height="100%" viewBox="0 0 65 64" version="1.1" xmlns="http://www.w3.org/2000/svg" xmlns:xlink="http://www.w3.org/1999/xlink" xml:space="preserve" xmlns:serif="http://www.serif.com/" style="fill-rule:evenodd;clip-rule:evenodd;stroke-linejoin:round;stroke-miterlimit:2;">
    <g transform="matrix(1,0,0,1,-206,0)">
        <g id="Hydrant" transform="matrix(0.08,0,0,0.106667,206.378,0)">
            <rect x="0" y="0" width="800" height="600" style="fill:none;"/>
            <clipPath id="_clip1">
                <rect x="0" y="0" width="800" height="600"/>
            </clipPath>
            <g clip-path="url(#_clip1)">
                <g transform="matrix(12.5,0,0,9.375,4.54747e-13,6.39488e-14)">
                    <circle cx="32" cy="32" r="32" style="fill:rgb(22,58,108);"/>
                </g>
                <g transform="matrix(12.5,0,0,9.375,-2579.72,0)">
                    <path d="M238.378,-0C256.039,-0 270.378,14.339 270.378,32C270.378,49.661 256.039,64 238.378,64C220.716,64 206.378,49.661 206.378,32C206.378,14.339 220.716,-0 238.378,-0ZM265.231,40.086C266.002,37.525 266.417,34.81 266.417,32C266.417,16.525 253.853,3.961 238.378,3.961C222.902,3.961 210.338,16.525 210.338,32C210.338,34.81 210.753,37.525 211.524,40.086L225.667,40.086C226.081,40.086 226.417,40.422 226.417,40.836L226.417,43.195C226.417,43.609 226.081,43.945 225.667,43.945L213.006,43.945C217.495,53.454 227.173,60.039 238.378,60.039C249.582,60.039 259.26,53.454 263.749,43.945L251.088,43.945C250.674,43.945 250.338,43.609 250.338,43.195L250.338,40.836C250.338,40.422 250.674,40.086 251.088,40.086L265.231,40.086Z" style="fill:rgb(246,206,80);"/>
                </g>
                <g transform="matrix(12.5,0,0,9.375,-2579.72,0)">
                    <path d="M234.98,12.21L234.98,10.631C234.98,10.218 235.317,9.881 235.73,9.881L241.028,9.881C241.442,9.881 241.778,10.218 241.778,10.631L241.778,12.21C244.505,13.273 246.613,15.578 247.406,18.428L248.414,18.428C248.828,18.428 249.164,18.764 249.164,19.178L249.164,22.707C249.164,23.121 248.828,23.457 248.414,23.457L247.748,23.457L247.748,46.95C247.748,47.364 247.412,47.7 246.998,47.7L243.469,47.7C243.055,47.7 242.719,47.364 242.719,46.95L242.719,23.457L240.892,23.457L240.892,46.95C240.892,47.364 240.556,47.7 240.142,47.7L236.613,47.7C236.199,47.7 235.863,47.364 235.863,46.95L235.863,23.457L234.037,23.457L234.037,46.95C234.037,47.364 233.701,47.7 233.287,47.7L229.757,47.7C229.343,47.7 229.007,47.364 229.007,46.95L229.007,23.457L228.345,23.457C227.931,23.457 227.595,23.121 227.595,22.707L227.595,19.178C227.595,18.764 227.931,18.428 228.345,18.428L229.352,18.428C230.145,15.578 232.254,13.273 234.98,12.21ZM227.595,30.339C227.595,29.925 227.259,29.589 226.845,29.589L224.961,29.589C224.547,29.589 224.211,29.925 224.211,30.339L224.211,35.637C224.211,36.051 224.547,36.387 224.961,36.387L226.845,36.387C227.259,36.387 227.595,36.051 227.595,35.637L227.595,30.339ZM252.545,30.339C252.545,29.925 252.209,29.589 251.795,29.589L249.911,29.589C249.497,29.589 249.161,29.925 249.161,30.339L249.161,35.637C249.161,36.051 249.497,36.387 249.911,36.387L251.795,36.387C252.209,36.387 252.545,36.051 252.545,35.637L252.545,30.339Z" style="fill:white;"/>
                </g>
            </g>
        </g>
    </g>
</svg>
