<?xml version="1.0" encoding="UTF-8" standalone="no"?>
<!DOCTYPE svg PUBLIC "-//W3C//DTD SVG 1.1//EN" "http://www.w3.org/Graphics/SVG/1.1/DTD/svg11.dtd">
<svg width="100%" height="100%" viewBox="0 0 64 64" version="1.1" xmlns="http://www.w3.org/2000/svg" xmlns:xlink="http://www.w3.org/1999/xlink" xml:space="preserve" xmlns:serif="http://www.serif.com/" style="fill-rule:evenodd;clip-rule:evenodd;stroke-linejoin:round;stroke-miterlimit:2;">
    <g id="Station" transform="matrix(0.08,0,0,0.106667,0,0)">
        <rect x="0" y="0" width="800" height="600" style="fill:none;"/>
        <clipPath id="_clip1">
            <rect x="0" y="0" width="800" height="600"/>
        </clipPath>
        <g clip-path="url(#_clip1)">
            <g transform="matrix(10.9528,0,0,8.21463,49.5091,37.1319)">
                <circle cx="32" cy="32" r="32" style="fill:rgb(22,58,108);"/>
            </g>
            <g transform="matrix(12.5,0,0,9.375,0,0)">
                <path d="M32,-0C49.661,-0 64,14.339 64,32C64,49.661 49.661,64 32,64C14.339,64 -0,49.661 -0,32C-0,14.339 14.339,-0 32,-0ZM58.854,40.086C59.625,37.525 60.039,34.81 60.039,32C60.039,16.525 47.475,3.961 32,3.961C16.525,3.961 3.961,16.525 3.961,32C3.961,34.81 4.375,37.525 5.146,40.086L6.919,40.086C7.332,40.086 7.669,40.422 7.669,40.836L7.669,43.195C7.669,43.609 7.332,43.945 6.919,43.945L6.629,43.945C11.118,53.454 20.796,60.039 32,60.039C43.204,60.039 52.882,53.454 57.371,43.945L18.445,43.945C18.031,43.945 17.695,43.609 17.695,43.195L17.695,40.836C17.695,40.422 18.031,40.086 18.445,40.086L58.854,40.086Z" style="fill:rgb(246,206,80);"/>
            </g>
            <g transform="matrix(12.5,0,0,9.375,0,0)">
                <path d="M19.677,29.193L15.807,29.193C12.597,29.193 9.995,31.795 9.995,35.005L9.995,42.945C9.995,43.21 10.1,43.464 10.288,43.652C10.475,43.839 10.729,43.945 10.995,43.945C12.061,43.945 13.741,43.945 14.808,43.945C15.36,43.945 15.808,43.497 15.808,42.945C15.808,40.612 15.808,35.006 15.808,35.006L19.677,35.006C20.229,35.006 20.677,34.558 20.677,34.006C20.677,32.939 20.677,31.259 20.677,30.193C20.677,29.64 20.229,29.193 19.677,29.193ZM42.099,21.418C42.099,21.016 41.772,20.69 41.37,20.69L22.593,20.69C22.191,20.69 21.864,21.016 21.864,21.418L21.864,36.799C21.864,37.201 22.191,37.528 22.593,37.528L41.37,37.528C41.772,37.528 42.099,37.201 42.099,36.799L42.099,21.418ZM44.036,35.238C43.837,35.238 43.646,35.159 43.505,35.018C43.365,34.878 43.286,34.687 43.286,34.488C43.286,33.373 43.286,31.29 43.286,30.175C43.286,29.976 43.365,29.786 43.505,29.645C43.646,29.504 43.837,29.425 44.036,29.425C45.764,29.425 49.881,29.425 49.881,29.425C49.881,29.425 53.451,31.486 54.949,32.351C55.122,32.451 55.247,32.615 55.299,32.807C55.35,32.999 55.323,33.204 55.224,33.376C54.666,34.341 53.625,36.145 53.067,37.111C52.968,37.283 52.804,37.409 52.612,37.46C52.42,37.512 52.215,37.485 52.043,37.385C50.826,36.683 48.324,35.238 48.324,35.238L44.036,35.238ZM31.124,24.541C31.124,24.273 30.906,24.055 30.638,24.055L24.044,24.055C23.776,24.055 23.558,24.273 23.558,24.541L23.558,28.939C23.558,29.208 23.776,29.425 24.044,29.425L30.638,29.425C30.906,29.425 31.124,29.208 31.124,28.939L31.124,24.541ZM40.199,24.541C40.199,24.273 39.981,24.055 39.713,24.055L33.119,24.055C32.851,24.055 32.633,24.273 32.633,24.541L32.633,28.939C32.633,29.208 32.851,29.425 33.119,29.425L39.713,29.425C39.981,29.425 40.199,29.208 40.199,28.939L40.199,24.541ZM44.183,15.791C44.183,15.377 43.847,15.041 43.433,15.041L20.53,15.041C20.116,15.041 19.78,15.377 19.78,15.791L19.78,18.15C19.78,18.564 20.116,18.9 20.53,18.9L43.433,18.9C43.847,18.9 44.183,18.564 44.183,18.15L44.183,15.791Z" style="fill:white;"/>
            </g>
        </g>
    </g>
</svg>
