<?xml version="1.0" encoding="UTF-8" standalone="no"?>
<!DOCTYPE svg PUBLIC "-//W3C//DTD SVG 1.1//EN" "http://www.w3.org/Graphics/SVG/1.1/DTD/svg11.dtd">
<svg width="100%" height="100%" viewBox="0 0 65 64" version="1.1" xmlns="http://www.w3.org/2000/svg" xmlns:xlink="http://www.w3.org/1999/xlink" xml:space="preserve" xmlns:serif="http://www.serif.com/" style="fill-rule:evenodd;clip-rule:evenodd;stroke-linejoin:round;stroke-miterlimit:2;">
    <g transform="matrix(1,0,0,1,-68,0)">
        <g id="Tank" transform="matrix(0.08,0,0,0.106667,68.7925,0)">
            <rect x="0" y="0" width="800" height="600" style="fill:none;"/>
            <clipPath id="_clip1">
                <rect x="0" y="0" width="800" height="600"/>
            </clipPath>
            <g clip-path="url(#_clip1)">
                <g transform="matrix(12.5,0,0,9.375,2.91323e-13,1.84741e-13)">
                    <circle cx="32" cy="32" r="32" style="fill:rgb(22,58,108);"/>
                </g>
                <g transform="matrix(12.5,0,0,9.375,-859.906,0)">
                    <path d="M100.793,-0C118.454,-0 132.793,14.339 132.793,32C132.793,49.661 118.454,64 100.793,64C83.131,64 68.793,49.661 68.793,32C68.793,14.339 83.131,-0 100.793,-0ZM127.646,40.086C128.417,37.525 128.832,34.81 128.832,32C128.832,16.525 116.268,3.961 100.793,3.961C85.317,3.961 72.753,16.525 72.753,32C72.753,47.475 85.317,60.039 100.793,60.039C111.997,60.039 121.675,53.454 126.164,43.945L85.624,43.945C85.21,43.945 84.874,43.609 84.874,43.195L84.874,40.836C84.874,40.422 85.21,40.086 85.624,40.086L127.646,40.086Z" style="fill:rgb(246,206,80);"/>
                </g>
                <g transform="matrix(12.5,0,0,9.375,-859.906,0)">
                    <path d="M86.678,29.193L82.807,29.193C79.597,29.193 76.995,31.795 76.995,35.005L76.995,42.945C76.995,43.21 77.101,43.464 77.288,43.652C77.476,43.839 77.73,43.945 77.995,43.945C79.062,43.945 80.741,43.945 81.808,43.945C82.36,43.945 82.808,43.497 82.808,42.945C82.808,40.612 82.808,35.006 82.808,35.006L86.678,35.006C87.23,35.006 87.678,34.558 87.678,34.006C87.678,32.939 87.678,31.259 87.678,30.193C87.678,29.64 87.23,29.193 86.678,29.193ZM119.239,21.098C119.239,20.684 118.903,20.348 118.489,20.348L90.22,20.348C89.806,20.348 89.47,20.684 89.47,21.098L89.47,36.736C89.47,37.15 89.806,37.486 90.22,37.486L118.489,37.486C118.903,37.486 119.239,37.15 119.239,36.736L119.239,21.098ZM103.319,10.213C103.319,10.213 105.39,10.213 105.39,10.213C106.426,10.213 107.419,10.625 108.152,11.357C108.884,12.09 109.296,13.083 109.296,14.119C109.296,15.401 109.296,16.719 109.296,17.588C109.296,17.853 109.19,18.107 109.003,18.295C108.815,18.482 108.561,18.588 108.296,18.588C107.71,18.588 106.974,18.588 106.388,18.588C106.123,18.588 105.869,18.482 105.681,18.295C105.494,18.107 105.388,17.853 105.388,17.587C105.388,16.859 105.388,15.876 105.388,15.142C105.388,14.578 104.931,14.121 104.367,14.121L104.342,14.121C103.778,14.121 103.32,14.578 103.32,15.142C103.32,15.422 103.32,15.724 103.32,16.002C103.32,16.267 103.215,16.522 103.028,16.709C102.84,16.897 102.586,17.002 102.32,17.002C101.735,17.002 100.998,17.002 100.413,17.002C100.148,17.002 99.894,16.897 99.706,16.709C99.518,16.522 99.413,16.267 99.413,16.002C99.413,15.485 99.413,14.817 99.413,14.119C99.413,11.962 101.162,10.213 103.319,10.213Z" style="fill:white;"/>
                </g>
            </g>
        </g>
    </g>
</svg>
