<?xml version="1.0" encoding="UTF-8" standalone="no"?>
<!DOCTYPE svg PUBLIC "-//W3C//DTD SVG 1.1//EN" "http://www.w3.org/Graphics/SVG/1.1/DTD/svg11.dtd">
<svg width="100%" height="100%" viewBox="0 0 65 64" version="1.1" xmlns="http://www.w3.org/2000/svg" xmlns:xlink="http://www.w3.org/1999/xlink" xml:space="preserve" xmlns:serif="http://www.serif.com/" style="fill-rule:evenodd;clip-rule:evenodd;stroke-linejoin:round;stroke-miterlimit:2;">
    <g transform="matrix(1,0,0,1,-275,0)">
        <g id="Tube" transform="matrix(0.08,0,0,0.106667,275.17,0)">
            <rect x="0" y="0" width="800" height="600" style="fill:none;"/>
            <clipPath id="_clip1">
                <rect x="0" y="0" width="800" height="600"/>
            </clipPath>
            <g clip-path="url(#_clip1)">
                <g transform="matrix(12.5,0,0,9.375,4.54747e-13,6.39488e-14)">
                    <circle cx="32" cy="32" r="32" style="fill:rgb(22,58,108);"/>
                </g>
                <g transform="matrix(12.5,0,0,9.375,-3439.63,0)">
                    <path d="M307.17,-0C324.831,-0 339.17,14.339 339.17,32C339.17,49.661 324.831,64 307.17,64C289.509,64 275.17,49.661 275.17,32C275.17,14.339 289.509,-0 307.17,-0ZM334.024,40.086C334.795,37.525 335.209,34.81 335.209,32C335.209,16.525 322.645,3.961 307.17,3.961C291.695,3.961 279.131,16.525 279.131,32C279.131,34.81 279.545,37.525 280.316,40.086L286.767,40.086C287.181,40.086 287.517,40.422 287.517,40.836L287.517,43.195C287.517,43.609 287.181,43.945 286.767,43.945L281.799,43.945C286.288,53.454 295.966,60.039 307.17,60.039C318.374,60.039 328.052,53.454 332.541,43.945L306.033,43.945C305.62,43.945 305.283,43.609 305.283,43.195L305.283,40.836C305.283,40.422 305.62,40.086 306.033,40.086L334.024,40.086Z" style="fill:rgb(246,206,80);"/>
                </g>
                <g transform="matrix(12.5,0,0,9.375,-3439.63,0)">
                    <path d="M311.304,15.081L301.789,15.081C298.67,15.081 295.678,16.32 293.472,18.526C291.266,20.732 290.026,23.724 290.026,26.844L290.026,45.735C290.026,46.288 290.474,46.735 291.026,46.735C293.363,46.735 299.162,46.735 301.499,46.735C302.052,46.735 302.499,46.288 302.499,45.735C302.499,43.032 302.499,35.478 302.499,31.003C302.499,30.089 302.863,29.211 303.51,28.564C304.157,27.917 305.034,27.554 305.949,27.554C307.842,27.554 310.052,27.554 311.304,27.554C311.57,27.554 311.824,27.449 312.011,27.261C312.199,27.074 312.304,26.819 312.304,26.554C312.304,24.217 312.304,18.418 312.304,16.081C312.304,15.816 312.199,15.561 312.011,15.374C311.824,15.186 311.57,15.081 311.304,15.081ZM319.131,14.033C319.131,13.619 318.794,13.283 318.381,13.283L315.196,13.283C314.782,13.283 314.446,13.619 314.446,14.033L314.446,27.984C314.446,28.398 314.782,28.734 315.196,28.734L318.381,28.734C318.794,28.734 319.131,28.398 319.131,27.984L319.131,14.033Z" style="fill:white;"/>
                </g>
            </g>
        </g>
    </g>
</svg>
